<mxfile host="Electron" modified="2024-07-05T07:56:25.607Z" agent="Mozilla/5.0 (X11; Linux x86_64) AppleWebKit/537.36 (KHTML, like Gecko) draw.io/24.6.4 Chrome/124.0.6367.207 Electron/30.0.6 Safari/537.36" etag="bmwad0r1gYQPRbcgLgEu" version="24.6.4" type="device">
  <diagram name="Page-1" id="BTOA4CZcGHATE8HndeKb">
    <mxGraphModel dx="827" dy="511" grid="1" gridSize="10" guides="1" tooltips="1" connect="1" arrows="1" fold="1" page="1" pageScale="1" pageWidth="827" pageHeight="1169" math="0" shadow="0">
      <root>
        <mxCell id="0" />
        <mxCell id="1" parent="0" />
        <mxCell id="rbC5wZNh2ZVycHX-QY7T-1" value="&lt;div style=&quot;text-align: center;&quot;&gt;&lt;span style=&quot;background-color: initial;&quot;&gt;HMI1&lt;/span&gt;&lt;/div&gt;&lt;div style=&quot;text-align: center; font-size: 9px;&quot;&gt;Raspberry Pi 4 Model B 2GB&amp;nbsp;&lt;/div&gt;" style="rounded=0;whiteSpace=wrap;html=1;fontSize=9;align=left;" vertex="1" parent="1">
          <mxGeometry x="498.5" y="166" width="120" height="70" as="geometry" />
        </mxCell>
        <mxCell id="rbC5wZNh2ZVycHX-QY7T-3" value="&lt;div style=&quot;&quot;&gt;&lt;span style=&quot;background-color: initial;&quot;&gt;Switch&lt;/span&gt;&lt;/div&gt;&lt;div&gt;Min number of Ports: 8&lt;/div&gt;&lt;div&gt;(PLCs: 4, HMIs: 2, misc: 2)&lt;/div&gt;" style="rounded=1;whiteSpace=wrap;html=1;fontSize=9;align=center;" vertex="1" parent="1">
          <mxGeometry x="498" y="296" width="120" height="74" as="geometry" />
        </mxCell>
        <mxCell id="rbC5wZNh2ZVycHX-QY7T-4" value="&lt;div style=&quot;&quot;&gt;&lt;span style=&quot;background-color: initial;&quot;&gt;PLC1&lt;/span&gt;&lt;/div&gt;&lt;div style=&quot;&quot;&gt;Raspberry Pi 4 Model B 2GB&lt;/div&gt;&lt;div style=&quot;font-size: 9px;&quot;&gt;&lt;br&gt;&lt;/div&gt;&lt;div style=&quot;font-size: 9px;&quot;&gt;Desc: Controls the Transfer Switch based on the Power Meters measurements.&lt;/div&gt;" style="rounded=0;whiteSpace=wrap;html=1;fontSize=9;align=center;horizontal=1;" vertex="1" parent="1">
          <mxGeometry x="343" y="411" width="150" height="119" as="geometry" />
        </mxCell>
        <mxCell id="rbC5wZNh2ZVycHX-QY7T-5" value="" style="endArrow=none;html=1;rounded=0;exitX=0.5;exitY=1;exitDx=0;exitDy=0;entryX=0.5;entryY=0;entryDx=0;entryDy=0;" edge="1" parent="1" source="rbC5wZNh2ZVycHX-QY7T-3" target="rbC5wZNh2ZVycHX-QY7T-4">
          <mxGeometry width="50" height="50" relative="1" as="geometry">
            <mxPoint x="358" y="320" as="sourcePoint" />
            <mxPoint x="358" y="270" as="targetPoint" />
          </mxGeometry>
        </mxCell>
        <mxCell id="rbC5wZNh2ZVycHX-QY7T-9" value="" style="endArrow=none;html=1;rounded=0;exitX=0.5;exitY=0;exitDx=0;exitDy=0;entryX=0.5;entryY=1;entryDx=0;entryDy=0;" edge="1" parent="1" source="rbC5wZNh2ZVycHX-QY7T-3" target="rbC5wZNh2ZVycHX-QY7T-1">
          <mxGeometry width="50" height="50" relative="1" as="geometry">
            <mxPoint x="538" y="310" as="sourcePoint" />
            <mxPoint x="588" y="260" as="targetPoint" />
          </mxGeometry>
        </mxCell>
        <mxCell id="rbC5wZNh2ZVycHX-QY7T-14" value="Attacker&lt;div&gt;(External Laptop)&lt;/div&gt;" style="rounded=0;whiteSpace=wrap;html=1;fontSize=9;" vertex="1" parent="1">
          <mxGeometry x="711" y="307" width="93" height="52" as="geometry" />
        </mxCell>
        <mxCell id="rbC5wZNh2ZVycHX-QY7T-15" value="" style="endArrow=none;html=1;rounded=0;entryX=0;entryY=0.5;entryDx=0;entryDy=0;exitX=1;exitY=0.5;exitDx=0;exitDy=0;" edge="1" parent="1" source="rbC5wZNh2ZVycHX-QY7T-3" target="rbC5wZNh2ZVycHX-QY7T-14">
          <mxGeometry width="50" height="50" relative="1" as="geometry">
            <mxPoint x="568" y="380" as="sourcePoint" />
            <mxPoint x="648" y="434" as="targetPoint" />
          </mxGeometry>
        </mxCell>
        <mxCell id="rbC5wZNh2ZVycHX-QY7T-16" value="Level 1: Intelligent Device Zone" style="text;html=1;align=left;verticalAlign=middle;resizable=0;points=[];autosize=1;strokeColor=none;fillColor=none;" vertex="1" parent="1">
          <mxGeometry x="10" y="479" width="190" height="30" as="geometry" />
        </mxCell>
        <mxCell id="rbC5wZNh2ZVycHX-QY7T-17" value="Level 2: Control Systems Zone" style="text;html=1;align=left;verticalAlign=middle;resizable=0;points=[];autosize=1;strokeColor=none;fillColor=none;" vertex="1" parent="1">
          <mxGeometry x="10" y="180" width="190" height="30" as="geometry" />
        </mxCell>
        <mxCell id="rbC5wZNh2ZVycHX-QY7T-18" value="Level 0: Physical Process Zone" style="text;html=1;align=left;verticalAlign=middle;resizable=0;points=[];autosize=1;strokeColor=none;fillColor=none;" vertex="1" parent="1">
          <mxGeometry x="10" y="775" width="190" height="30" as="geometry" />
        </mxCell>
        <mxCell id="rbC5wZNh2ZVycHX-QY7T-19" value="Solar Panel (Simulated Input)" style="rounded=0;whiteSpace=wrap;html=1;fontSize=9;" vertex="1" parent="1">
          <mxGeometry x="368" y="740" width="70" height="40" as="geometry" />
        </mxCell>
        <mxCell id="rbC5wZNh2ZVycHX-QY7T-20" value="Mains Power (Simulated Input)" style="rounded=0;whiteSpace=wrap;html=1;fontSize=9;" vertex="1" parent="1">
          <mxGeometry x="288" y="740" width="70" height="40" as="geometry" />
        </mxCell>
        <mxCell id="rbC5wZNh2ZVycHX-QY7T-21" value="Simulated Load (Output)" style="rounded=0;whiteSpace=wrap;html=1;fontSize=9;" vertex="1" parent="1">
          <mxGeometry x="328" y="900" width="70" height="40" as="geometry" />
        </mxCell>
        <mxCell id="rbC5wZNh2ZVycHX-QY7T-22" value="Power Meter&lt;div&gt;(Sensor)&lt;/div&gt;" style="rounded=0;whiteSpace=wrap;html=1;fontSize=9;" vertex="1" parent="1">
          <mxGeometry x="328" y="790" width="70" height="40" as="geometry" />
        </mxCell>
        <mxCell id="rbC5wZNh2ZVycHX-QY7T-23" value="Transfer Switch (Actuator)" style="rounded=0;whiteSpace=wrap;html=1;fontSize=9;" vertex="1" parent="1">
          <mxGeometry x="328" y="840" width="70" height="40" as="geometry" />
        </mxCell>
        <mxCell id="rbC5wZNh2ZVycHX-QY7T-24" value="" style="rounded=1;whiteSpace=wrap;html=1;dashed=1;fillColor=none;" vertex="1" parent="1">
          <mxGeometry x="271" y="660" width="187" height="290" as="geometry" />
        </mxCell>
        <mxCell id="rbC5wZNh2ZVycHX-QY7T-25" value="&lt;font style=&quot;font-size: 9px;&quot;&gt;HIL1&lt;/font&gt;&lt;div&gt;&lt;font style=&quot;font-size: 9px;&quot;&gt;Raspberry Pi 4 Model B 2GB&lt;br&gt;&lt;/font&gt;&lt;div&gt;&lt;font style=&quot;font-size: 9px;&quot;&gt;Desc: All sensor + actuator process&amp;nbsp;&lt;/font&gt;&lt;/div&gt;&lt;div&gt;&lt;font style=&quot;font-size: 9px;&quot;&gt;are to be simulated&lt;/font&gt;&lt;/div&gt;&lt;/div&gt;" style="text;html=1;align=center;verticalAlign=middle;resizable=0;points=[];autosize=1;strokeColor=none;fillColor=none;" vertex="1" parent="1">
          <mxGeometry x="280" y="670" width="170" height="70" as="geometry" />
        </mxCell>
        <mxCell id="rbC5wZNh2ZVycHX-QY7T-27" value="" style="endArrow=none;html=1;rounded=0;entryX=0.5;entryY=1;entryDx=0;entryDy=0;exitX=0.5;exitY=0;exitDx=0;exitDy=0;" edge="1" parent="1" source="rbC5wZNh2ZVycHX-QY7T-33" target="rbC5wZNh2ZVycHX-QY7T-32">
          <mxGeometry width="50" height="50" relative="1" as="geometry">
            <mxPoint x="417" y="630" as="sourcePoint" />
            <mxPoint x="537" y="650" as="targetPoint" />
          </mxGeometry>
        </mxCell>
        <mxCell id="rbC5wZNh2ZVycHX-QY7T-29" value="Ethernet" style="text;html=1;align=center;verticalAlign=middle;resizable=0;points=[];autosize=1;strokeColor=none;fillColor=none;fontSize=9;" vertex="1" parent="1">
          <mxGeometry x="563.5" y="244" width="60" height="20" as="geometry" />
        </mxCell>
        <mxCell id="rbC5wZNh2ZVycHX-QY7T-30" value="Ethernet" style="text;html=1;align=center;verticalAlign=middle;resizable=0;points=[];autosize=1;strokeColor=none;fillColor=none;fontSize=9;" vertex="1" parent="1">
          <mxGeometry x="381" y="380" width="60" height="20" as="geometry" />
        </mxCell>
        <mxCell id="rbC5wZNh2ZVycHX-QY7T-31" value="Serial RS485" style="text;html=1;align=center;verticalAlign=middle;resizable=0;points=[];autosize=1;strokeColor=none;fillColor=none;fontSize=9;" vertex="1" parent="1">
          <mxGeometry x="418" y="560" width="80" height="20" as="geometry" />
        </mxCell>
        <mxCell id="rbC5wZNh2ZVycHX-QY7T-32" value="RS485 USB&amp;nbsp; Converter" style="rounded=0;whiteSpace=wrap;html=1;fontSize=9;" vertex="1" parent="1">
          <mxGeometry x="388" y="530" width="60" height="30" as="geometry" />
        </mxCell>
        <mxCell id="rbC5wZNh2ZVycHX-QY7T-33" value="RS485 USB&amp;nbsp; Converter" style="rounded=0;whiteSpace=wrap;html=1;fontSize=9;" vertex="1" parent="1">
          <mxGeometry x="388" y="640" width="60" height="30" as="geometry" />
        </mxCell>
        <mxCell id="rbC5wZNh2ZVycHX-QY7T-36" value="Serial RS485" style="text;html=1;align=center;verticalAlign=middle;resizable=0;points=[];autosize=1;strokeColor=none;fillColor=none;fontSize=9;" vertex="1" parent="1">
          <mxGeometry x="418" y="620" width="80" height="20" as="geometry" />
        </mxCell>
        <mxCell id="rbC5wZNh2ZVycHX-QY7T-38" value="LED Display" style="rounded=0;whiteSpace=wrap;html=1;fontSize=9;" vertex="1" parent="1">
          <mxGeometry x="283" y="640" width="100" height="30" as="geometry" />
        </mxCell>
        <mxCell id="rbC5wZNh2ZVycHX-QY7T-40" value="Touchscreen Display" style="rounded=0;whiteSpace=wrap;html=1;fontSize=9;" vertex="1" parent="1">
          <mxGeometry x="508.5" y="136" width="100" height="30" as="geometry" />
        </mxCell>
        <mxCell id="rbC5wZNh2ZVycHX-QY7T-42" value="&lt;div style=&quot;&quot;&gt;&lt;span style=&quot;background-color: initial;&quot;&gt;PLC2&lt;/span&gt;&lt;/div&gt;&lt;div style=&quot;&quot;&gt;Raspberry Pi 4 Model B 2GB&lt;/div&gt;&lt;div style=&quot;font-size: 9px;&quot;&gt;&lt;br&gt;&lt;/div&gt;&lt;div style=&quot;font-size: 9px;&quot;&gt;Desc: Controls the Transfer Switch based on the Power Meters measurements.&lt;/div&gt;" style="rounded=0;whiteSpace=wrap;html=1;fontSize=9;align=center;horizontal=1;" vertex="1" parent="1">
          <mxGeometry x="618.5" y="411" width="150" height="119" as="geometry" />
        </mxCell>
        <mxCell id="rbC5wZNh2ZVycHX-QY7T-43" value="Solar Panel (Simulated Input)" style="rounded=0;whiteSpace=wrap;html=1;fontSize=9;" vertex="1" parent="1">
          <mxGeometry x="643.5" y="740" width="70" height="40" as="geometry" />
        </mxCell>
        <mxCell id="rbC5wZNh2ZVycHX-QY7T-44" value="Mains Power (Simulated Input)" style="rounded=0;whiteSpace=wrap;html=1;fontSize=9;" vertex="1" parent="1">
          <mxGeometry x="563.5" y="740" width="70" height="40" as="geometry" />
        </mxCell>
        <mxCell id="rbC5wZNh2ZVycHX-QY7T-45" value="Simulated Load (Output)" style="rounded=0;whiteSpace=wrap;html=1;fontSize=9;" vertex="1" parent="1">
          <mxGeometry x="603.5" y="900" width="70" height="40" as="geometry" />
        </mxCell>
        <mxCell id="rbC5wZNh2ZVycHX-QY7T-46" value="Power Meter&lt;div&gt;(Sensor)&lt;/div&gt;" style="rounded=0;whiteSpace=wrap;html=1;fontSize=9;" vertex="1" parent="1">
          <mxGeometry x="603.5" y="790" width="70" height="40" as="geometry" />
        </mxCell>
        <mxCell id="rbC5wZNh2ZVycHX-QY7T-47" value="Transfer Switch (Actuator)" style="rounded=0;whiteSpace=wrap;html=1;fontSize=9;" vertex="1" parent="1">
          <mxGeometry x="603.5" y="840" width="70" height="40" as="geometry" />
        </mxCell>
        <mxCell id="rbC5wZNh2ZVycHX-QY7T-48" value="" style="rounded=1;whiteSpace=wrap;html=1;dashed=1;fillColor=none;" vertex="1" parent="1">
          <mxGeometry x="546.5" y="660" width="187" height="290" as="geometry" />
        </mxCell>
        <mxCell id="rbC5wZNh2ZVycHX-QY7T-49" value="&lt;font style=&quot;font-size: 9px;&quot;&gt;HIL2&lt;/font&gt;&lt;div&gt;&lt;span style=&quot;font-size: 9px; background-color: initial;&quot;&gt;Raspberry Pi 4 Model B 2GB&lt;/span&gt;&lt;div&gt;&lt;div&gt;&lt;font style=&quot;font-size: 9px;&quot;&gt;Desc: All sensor + actuator process&amp;nbsp;&lt;/font&gt;&lt;/div&gt;&lt;div&gt;&lt;font style=&quot;font-size: 9px;&quot;&gt;are to be simulated&lt;/font&gt;&lt;/div&gt;&lt;/div&gt;&lt;/div&gt;" style="text;html=1;align=center;verticalAlign=middle;resizable=0;points=[];autosize=1;strokeColor=none;fillColor=none;" vertex="1" parent="1">
          <mxGeometry x="555.5" y="670" width="170" height="70" as="geometry" />
        </mxCell>
        <mxCell id="rbC5wZNh2ZVycHX-QY7T-50" value="" style="endArrow=none;html=1;rounded=0;entryX=0.5;entryY=1;entryDx=0;entryDy=0;exitX=0.5;exitY=0;exitDx=0;exitDy=0;" edge="1" parent="1" source="rbC5wZNh2ZVycHX-QY7T-54" target="rbC5wZNh2ZVycHX-QY7T-53">
          <mxGeometry width="50" height="50" relative="1" as="geometry">
            <mxPoint x="692.5" y="630" as="sourcePoint" />
            <mxPoint x="812.5" y="650" as="targetPoint" />
          </mxGeometry>
        </mxCell>
        <mxCell id="rbC5wZNh2ZVycHX-QY7T-51" value="Ethernet" style="text;html=1;align=center;verticalAlign=middle;resizable=0;points=[];autosize=1;strokeColor=none;fillColor=none;fontSize=9;" vertex="1" parent="1">
          <mxGeometry x="679.5" y="380" width="60" height="20" as="geometry" />
        </mxCell>
        <mxCell id="rbC5wZNh2ZVycHX-QY7T-52" value="Serial RS485" style="text;html=1;align=center;verticalAlign=middle;resizable=0;points=[];autosize=1;strokeColor=none;fillColor=none;fontSize=9;" vertex="1" parent="1">
          <mxGeometry x="693.5" y="560" width="80" height="20" as="geometry" />
        </mxCell>
        <mxCell id="rbC5wZNh2ZVycHX-QY7T-53" value="RS485 USB&amp;nbsp; Converter" style="rounded=0;whiteSpace=wrap;html=1;fontSize=9;" vertex="1" parent="1">
          <mxGeometry x="663.5" y="530" width="60" height="30" as="geometry" />
        </mxCell>
        <mxCell id="rbC5wZNh2ZVycHX-QY7T-54" value="RS485 USB&amp;nbsp; Converter" style="rounded=0;whiteSpace=wrap;html=1;fontSize=9;" vertex="1" parent="1">
          <mxGeometry x="663.5" y="640" width="60" height="30" as="geometry" />
        </mxCell>
        <mxCell id="rbC5wZNh2ZVycHX-QY7T-55" value="Serial RS485" style="text;html=1;align=center;verticalAlign=middle;resizable=0;points=[];autosize=1;strokeColor=none;fillColor=none;fontSize=9;" vertex="1" parent="1">
          <mxGeometry x="693.5" y="620" width="80" height="20" as="geometry" />
        </mxCell>
        <mxCell id="rbC5wZNh2ZVycHX-QY7T-56" value="LED Display" style="rounded=0;whiteSpace=wrap;html=1;fontSize=9;" vertex="1" parent="1">
          <mxGeometry x="558.5" y="640" width="100" height="30" as="geometry" />
        </mxCell>
        <mxCell id="rbC5wZNh2ZVycHX-QY7T-57" value="" style="endArrow=none;html=1;rounded=0;exitX=0.5;exitY=1;exitDx=0;exitDy=0;entryX=0.5;entryY=0;entryDx=0;entryDy=0;" edge="1" parent="1" source="rbC5wZNh2ZVycHX-QY7T-3" target="rbC5wZNh2ZVycHX-QY7T-42">
          <mxGeometry width="50" height="50" relative="1" as="geometry">
            <mxPoint x="568" y="380" as="sourcePoint" />
            <mxPoint x="428" y="421" as="targetPoint" />
          </mxGeometry>
        </mxCell>
        <mxCell id="rbC5wZNh2ZVycHX-QY7T-59" value="Raspberry Pi 4 Power Supply&lt;div&gt;5.1V 3.0A&lt;/div&gt;" style="rounded=0;whiteSpace=wrap;html=1;fontSize=9;" vertex="1" parent="1">
          <mxGeometry x="900" y="160" width="93" height="52" as="geometry" />
        </mxCell>
        <mxCell id="rbC5wZNh2ZVycHX-QY7T-60" value="Raspberry Pi 4 Power Supply&lt;div&gt;5.1V 3.0A&lt;/div&gt;" style="rounded=0;whiteSpace=wrap;html=1;fontSize=9;" vertex="1" parent="1">
          <mxGeometry x="900" y="212" width="93" height="52" as="geometry" />
        </mxCell>
        <mxCell id="rbC5wZNh2ZVycHX-QY7T-61" value="Raspberry Pi 4 Power Supply&lt;div&gt;5.1V 3.0A&lt;/div&gt;" style="rounded=0;whiteSpace=wrap;html=1;fontSize=9;" vertex="1" parent="1">
          <mxGeometry x="900" y="264" width="93" height="52" as="geometry" />
        </mxCell>
        <mxCell id="rbC5wZNh2ZVycHX-QY7T-62" value="Raspberry Pi 4 Power Supply&lt;div&gt;5.1V 3.0A&lt;/div&gt;" style="rounded=0;whiteSpace=wrap;html=1;fontSize=9;" vertex="1" parent="1">
          <mxGeometry x="900" y="316" width="93" height="52" as="geometry" />
        </mxCell>
        <mxCell id="rbC5wZNh2ZVycHX-QY7T-63" value="Raspberry Pi 4 Power Supply&lt;div&gt;5.1V 3.0A&lt;/div&gt;" style="rounded=0;whiteSpace=wrap;html=1;fontSize=9;" vertex="1" parent="1">
          <mxGeometry x="900" y="368" width="93" height="52" as="geometry" />
        </mxCell>
        <mxCell id="rbC5wZNh2ZVycHX-QY7T-64" value="Raspberry Pi 4 Power Supply&lt;div&gt;5.1V 3.0A&lt;/div&gt;" style="rounded=0;whiteSpace=wrap;html=1;fontSize=9;" vertex="1" parent="1">
          <mxGeometry x="900" y="420" width="93" height="52" as="geometry" />
        </mxCell>
        <mxCell id="rbC5wZNh2ZVycHX-QY7T-65" value="Power Board" style="rounded=0;whiteSpace=wrap;html=1;fontSize=9;" vertex="1" parent="1">
          <mxGeometry x="1000" y="160" width="100" height="370" as="geometry" />
        </mxCell>
        <mxCell id="rbC5wZNh2ZVycHX-QY7T-81" value="Switch Power Supply" style="rounded=0;whiteSpace=wrap;html=1;fontSize=9;" vertex="1" parent="1">
          <mxGeometry x="900" y="472" width="93" height="58" as="geometry" />
        </mxCell>
      </root>
    </mxGraphModel>
  </diagram>
</mxfile>
